<svg xmlns="https://www.w3.org/2000/svg" width="226" height="28" viewBox="0 0 226 28" fill="none"><path d="M14.6406 0.890625L22.9531 26H18.1562L16.3125 20.2344H7.3125L5.48438 26H0.671875L8.92188 0.890625H14.6406ZM7.95312 17.9375H15.6875L11.875 5.92188L7.95312 17.9375ZM30.2656 6.40625V26H26.0938V0.890625H32.3594L39.1094 20.7656L46 0.890625H52.2656V26H48.0938V6.40625L41.4688 26H36.9219L30.2656 6.40625ZM69.3594 0.890625L77.6719 26H72.875L71.0312 20.2344H62.0312L60.2031 26H55.3906L63.6406 0.890625H69.3594ZM62.6719 17.9375H70.4062L66.5938 5.92188L62.6719 17.9375ZM88.7031 22.8438C91.4531 22.8438 93.4115 21.9896 94.5781 20.2812C95.6719 18.6771 96.2188 16.4115 96.2188 13.4844C96.2188 10.474 95.7188 8.18229 94.7188 6.60938C93.6354 4.90104 91.6823 4.04688 88.8594 4.04688H85.5938V22.8438H88.7031ZM88.9375 0.890625C93.0417 0.890625 96.0885 1.9375 98.0781 4.03125C100.068 6.125 101.062 9.27604 101.062 13.4844C101.062 21.8281 97.0573 26 89.0469 26H80.8281V0.890625H88.9375ZM105.156 26V0.890625H121.547V4.04688H109.922V11.4531H120.062V14.3594H109.922V22.8906H121.719V26H105.156ZM138.406 0.890625H143.219L135.078 17.9688V26H130.531V17.9688L122.453 0.890625H127.234L132.828 13.0312L138.406 0.890625ZM157.578 0.890625L165.891 26H161.094L159.25 20.2344H150.25L148.422 26H143.609L151.859 0.890625H157.578ZM150.891 17.9375H158.625L154.812 5.92188L150.891 17.9375ZM177.608 27.258C177.313 27.0767 177.154 26.8953 177.132 26.714C177.109 26.5553 177.166 26.238 177.302 25.762C177.279 25.4673 177.29 25.1953 177.336 24.946C177.404 24.6967 177.449 24.5267 177.472 24.436C177.585 24.436 177.653 24.368 177.676 24.232C177.698 24.096 177.71 23.9827 177.71 23.892C177.71 23.7107 177.778 23.4047 177.914 22.974C178.072 22.5433 178.208 22.1013 178.322 21.648C178.503 21.1947 178.673 20.7753 178.832 20.39C179.013 19.982 179.104 19.7327 179.104 19.642C179.104 19.4607 179.149 19.2793 179.24 19.098C179.33 18.894 179.432 18.7013 179.546 18.52C179.659 18.248 179.738 17.9533 179.784 17.636C179.852 17.296 179.886 17.0353 179.886 16.854C180.022 16.5593 180.169 16.242 180.328 15.902C180.486 15.562 180.611 15.2107 180.702 14.848C180.838 14.4627 181.03 13.9073 181.28 13.182C181.552 12.434 181.835 11.6747 182.13 10.904C182.334 10.4733 182.538 10.02 182.742 9.544C182.946 9.068 183.127 8.66 183.286 8.32C183.444 7.98 183.558 7.81 183.626 7.81C183.626 7.81 183.626 7.776 183.626 7.708C183.626 7.61733 183.626 7.52667 183.626 7.436C183.626 7.32267 183.716 7.10733 183.898 6.79C184.079 6.45 184.249 6.09867 184.408 5.736C184.634 5.396 184.793 5.07867 184.884 4.784C184.974 4.46667 185.02 4.308 185.02 4.308C185.02 4.308 185.054 4.24 185.122 4.104C185.212 3.968 185.303 3.85467 185.394 3.764C185.688 3.56 185.96 3.48067 186.21 3.526C186.482 3.57133 186.708 3.78667 186.89 4.172C187.071 4.53467 187.15 4.84067 187.128 5.09C187.105 5.31667 187.003 5.566 186.822 5.838C186.64 6.246 186.402 6.76733 186.108 7.402C185.813 8.014 185.496 8.68267 185.156 9.408C184.838 10.1107 184.532 10.7907 184.238 11.448C183.966 12.0827 183.739 12.638 183.558 13.114C183.399 13.5673 183.32 13.8507 183.32 13.964L181.926 17.398C181.926 17.4433 181.88 17.5567 181.79 17.738C181.722 17.9193 181.62 18.1913 181.484 18.554C181.37 18.9167 181.223 19.3927 181.042 19.982C180.86 20.5713 180.645 21.2853 180.396 22.124C179.942 23.5747 179.591 24.708 179.342 25.524C179.092 26.3173 178.888 26.8613 178.73 27.156C178.594 27.4733 178.446 27.632 178.288 27.632C178.197 27.632 178.095 27.5867 177.982 27.496C177.891 27.428 177.766 27.3487 177.608 27.258ZM189.61 27.53C189.406 27.5527 189.122 27.4507 188.76 27.224C188.42 27.02 188.046 26.7593 187.638 26.442C187.252 26.1247 186.878 25.796 186.516 25.456C186.176 25.116 185.904 24.8213 185.7 24.572C185.337 24.0507 184.884 23.3707 184.34 22.532C183.796 21.6707 183.388 20.7527 183.116 19.778C182.957 19.0527 182.798 18.486 182.64 18.078C182.481 17.6473 182.379 17.296 182.334 17.024L182.368 14.644L184.102 15.188C184.215 16.412 184.385 17.432 184.612 18.248C184.861 19.0413 185.156 19.744 185.496 20.356C185.768 20.9453 186.074 21.5347 186.414 22.124C186.754 22.6907 187.116 23.1667 187.502 23.552C188.023 24.1187 188.488 24.538 188.896 24.81C189.304 25.082 189.61 25.218 189.814 25.218C189.927 25.2407 190.086 25.32 190.29 25.456C190.516 25.592 190.72 25.7393 190.902 25.898C191.106 26.034 191.219 26.17 191.242 26.306C191.264 26.374 191.276 26.476 191.276 26.612C191.276 26.7707 191.253 26.9067 191.208 27.02C191.185 27.156 191.151 27.258 191.106 27.326C191.038 27.4847 190.913 27.6207 190.732 27.734C190.573 27.87 190.199 27.802 189.61 27.53ZM181.994 14.916L184.476 13.114C184.544 13.046 184.782 12.8193 185.19 12.434C185.62 12.0487 186.323 11.4933 187.298 10.768L191.48 7.368C192.046 7.07333 192.624 6.69933 193.214 6.246C193.826 5.79267 194.29 5.464 194.608 5.26C194.993 4.988 195.333 4.75 195.628 4.546C195.922 4.342 196.115 4.25133 196.206 4.274C196.387 4.18333 196.568 4.21733 196.75 4.376C196.954 4.512 197.112 4.70467 197.226 4.954C197.362 5.18067 197.418 5.38467 197.396 5.566C197.441 5.79267 197.396 5.98533 197.26 6.144C197.124 6.30267 196.795 6.52933 196.274 6.824C195.843 7.028 195.458 7.232 195.118 7.436C194.8 7.64 194.608 7.81 194.54 7.946C194.54 7.946 194.324 8.116 193.894 8.456C193.486 8.77333 192.953 9.15867 192.296 9.612C191.389 10.2013 190.607 10.7567 189.95 11.278C189.315 11.7993 188.907 12.196 188.726 12.468C188.635 12.468 188.544 12.502 188.454 12.57C188.386 12.638 188.306 12.6607 188.216 12.638C188.216 12.638 188.125 12.6947 187.944 12.808C187.785 12.9213 187.66 13.0347 187.57 13.148C187.524 13.2613 187.422 13.42 187.264 13.624C187.128 13.828 186.946 13.9187 186.72 13.896C186.561 13.9867 186.278 14.1793 185.87 14.474C185.462 14.746 185.031 15.052 184.578 15.392C184.147 15.732 183.773 16.038 183.456 16.31C183.138 16.582 182.968 16.7407 182.946 16.786L181.994 14.916ZM195.383 24.912C195.202 24.7307 195.066 24.504 194.975 24.232C194.907 23.96 194.885 23.688 194.907 23.416C194.93 23.144 194.987 22.9173 195.077 22.736C195.077 22.5547 195.1 22.4187 195.145 22.328C195.213 22.2147 195.236 22.1127 195.213 22.022C195.191 21.9313 195.213 21.7727 195.281 21.546C195.349 21.3193 195.417 21.104 195.485 20.9C195.644 20.5373 195.814 20.1067 195.995 19.608C196.177 19.0867 196.347 18.5767 196.505 18.078C196.664 17.5793 196.8 17.1487 196.913 16.786C197.027 16.4233 197.095 16.1967 197.117 16.106C197.117 15.834 197.299 15.6867 197.661 15.664C197.933 15.5733 198.137 15.5733 198.273 15.664C198.409 15.732 198.591 15.9473 198.817 16.31C198.999 16.4913 199.067 16.7633 199.021 17.126C198.976 17.4887 198.829 17.942 198.579 18.486C198.489 18.6673 198.375 18.928 198.239 19.268C198.126 19.608 198.047 19.914 198.001 20.186C197.911 20.3673 197.797 20.628 197.661 20.968C197.548 21.2853 197.446 21.5913 197.355 21.886C197.31 21.9993 197.265 22.1693 197.219 22.396C197.174 22.6 197.117 22.8267 197.049 23.076C196.981 23.3027 196.891 23.5067 196.777 23.688C196.573 24.6173 196.381 25.1613 196.199 25.32C196.041 25.4787 195.769 25.3427 195.383 24.912ZM198.681 11.108C198.568 10.9947 198.466 10.836 198.375 10.632C198.285 10.4053 198.228 10.2013 198.205 10.02C198.183 9.816 198.205 9.714 198.273 9.714C198.455 9.69133 198.67 9.49867 198.919 9.136C199.169 8.77333 199.271 8.456 199.225 8.184C199.225 8.09333 199.259 8.014 199.327 7.946C199.395 7.85533 199.475 7.79867 199.565 7.776C199.837 7.59467 200.098 7.572 200.347 7.708C200.619 7.82133 200.869 8.05933 201.095 8.422C201.299 8.85267 201.356 9.21533 201.265 9.51C201.175 9.782 200.925 10.1673 200.517 10.666C200.177 11.1193 199.86 11.3687 199.565 11.414C199.293 11.4593 198.999 11.3573 198.681 11.108ZM210.259 26.646C209.965 26.714 209.715 26.6687 209.511 26.51C209.33 26.374 209.194 26.17 209.103 25.898C208.922 25.3767 208.786 24.81 208.695 24.198C208.627 23.5633 208.616 23.008 208.661 22.532L208.729 21.818L207.403 22.872C206.633 23.552 205.885 24.0393 205.159 24.334C204.457 24.6287 203.833 24.776 203.289 24.776C203.04 24.7307 202.791 24.64 202.541 24.504C202.292 24.368 202.065 24.198 201.861 23.994C201.68 23.79 201.533 23.5747 201.419 23.348C201.283 23.0307 201.238 22.6 201.283 22.056C201.351 21.512 201.487 20.9227 201.691 20.288C201.918 19.6307 202.19 18.996 202.507 18.384C202.847 17.7493 203.233 17.194 203.663 16.718C204.411 15.5847 205.216 14.8933 206.077 14.644C206.939 14.3947 207.789 14.5193 208.627 15.018C209.217 15.2673 209.579 15.3807 209.715 15.358C209.874 15.3353 210.01 15.0747 210.123 14.576C210.214 14.2133 210.305 13.8507 210.395 13.488C210.486 13.1027 210.633 12.5927 210.837 11.958C211.404 10.2353 211.891 8.88667 212.299 7.912C212.73 6.93733 213.115 6.08733 213.455 5.362C213.705 4.84066 213.909 4.52333 214.067 4.41C214.249 4.274 214.43 4.21733 214.611 4.24C214.861 4.24 215.087 4.33067 215.291 4.512C215.495 4.69333 215.654 4.94267 215.767 5.26C215.858 5.464 215.892 5.64533 215.869 5.804C215.869 5.94 215.801 6.13267 215.665 6.382C215.371 6.926 215.019 7.65133 214.611 8.558C214.226 9.442 213.829 10.4167 213.421 11.482C213.036 12.5473 212.673 13.6013 212.333 14.644C211.993 15.6867 211.71 16.6047 211.483 17.398C211.347 17.8967 211.223 18.5313 211.109 19.302C211.019 20.0727 210.939 20.866 210.871 21.682C210.803 22.4753 210.758 23.1893 210.735 23.824C210.735 24.436 210.758 24.8327 210.803 25.014C210.939 25.4673 210.996 25.8073 210.973 26.034C210.973 26.2607 210.917 26.408 210.803 26.476C210.69 26.5667 210.509 26.6233 210.259 26.646ZM204.513 22.872C204.831 22.804 205.137 22.6793 205.431 22.498C205.749 22.3167 206.077 22.1013 206.417 21.852C207.097 21.3307 207.687 20.8547 208.185 20.424C208.684 19.9933 209.013 19.336 209.171 18.452C209.217 18.0213 209.171 17.6813 209.035 17.432C208.922 17.16 208.729 16.9107 208.457 16.684C208.185 16.5027 207.811 16.4347 207.335 16.48C206.882 16.5027 206.406 16.7407 205.907 17.194C205.363 17.6927 204.831 18.3613 204.309 19.2C203.811 20.0387 203.437 21.07 203.187 22.294C203.142 22.5207 203.21 22.702 203.391 22.838C203.573 22.974 203.947 22.9853 204.513 22.872ZM217.929 25.694C217.362 25.7393 216.818 25.7053 216.297 25.592C215.798 25.4787 215.367 25.286 215.005 25.014C214.665 24.7193 214.427 24.368 214.291 23.96C214.132 23.6427 214.053 23.4273 214.053 23.314C214.053 23.178 214.132 23.0647 214.291 22.974C214.472 22.974 214.631 23.0307 214.767 23.144C214.925 23.2347 215.129 23.3367 215.379 23.45C215.719 23.7447 216.127 23.9033 216.603 23.926C217.101 23.9487 217.555 23.8693 217.963 23.688C218.371 23.5067 218.597 23.28 218.643 23.008C218.643 22.9173 218.609 22.7587 218.541 22.532C218.473 22.3053 218.393 22.0673 218.303 21.818C217.691 20.9567 217.237 20.1067 216.943 19.268C216.671 18.4067 216.535 17.704 216.535 17.16C216.535 16.752 216.659 16.3213 216.909 15.868C217.158 15.392 217.498 14.9953 217.929 14.678C218.337 14.2473 218.79 13.862 219.289 13.522C219.787 13.182 220.286 12.8873 220.785 12.638C221.306 12.3887 221.771 12.2073 222.179 12.094C222.428 12.094 222.757 12.128 223.165 12.196C223.573 12.264 223.856 12.3433 224.015 12.434C224.264 12.5247 224.502 12.774 224.729 13.182C224.955 13.5673 225.069 13.9527 225.069 14.338C225.069 14.4967 225.023 14.7007 224.933 14.95C224.842 15.1993 224.695 15.494 224.491 15.834C224.4 16.0833 224.298 16.3213 224.185 16.548C224.071 16.752 224.015 16.8993 224.015 16.99C223.901 17.2393 223.743 17.364 223.539 17.364C223.357 17.3413 223.165 17.2393 222.961 17.058C222.779 16.854 222.632 16.616 222.519 16.344C222.428 16.004 222.394 15.732 222.417 15.528C222.439 15.3013 222.53 15.0633 222.689 14.814C222.938 14.5647 223.063 14.3947 223.063 14.304C223.063 14.2133 222.938 14.168 222.689 14.168C222.53 14.168 222.235 14.27 221.805 14.474C221.397 14.6553 220.955 14.9047 220.479 15.222C220.025 15.5167 219.629 15.834 219.289 16.174C218.858 16.582 218.597 16.8767 218.507 17.058C218.439 17.2393 218.405 17.5227 218.405 17.908C218.405 18.2253 218.473 18.622 218.609 19.098C218.767 19.574 218.926 19.8913 219.085 20.05C219.085 20.05 219.164 20.2087 219.323 20.526C219.481 20.8207 219.674 21.138 219.901 21.478C220.558 22.9287 220.728 23.9713 220.411 24.606C220.093 25.2407 219.266 25.6033 217.929 25.694Z" fill="#272727"></path></svg>